<svg width="49" height="50" viewBox="0 0 49 50" fill="none" xmlns="http://www.w3.org/2000/svg">
<rect x="0.0195312" y="0.838867" width="48.743" height="48.743" rx="24.3715" fill="#0D1B39"/>
<path d="M34.1339 25.21C34.1339 24.4409 33.5104 23.8174 32.7413 23.8174H25.778V16.8541C25.778 16.0849 25.1545 15.4614 24.3853 15.4614C23.6162 15.4614 22.9927 16.0849 22.9927 16.8541V23.8174H16.0294C15.2602 23.8174 14.6367 24.4409 14.6367 25.21C14.6367 25.9792 15.2602 26.6027 16.0294 26.6027H22.9927V33.566C22.9927 34.3351 23.6162 34.9586 24.3853 34.9586C25.1545 34.9586 25.778 34.3351 25.778 33.566V26.6027H32.7413C33.5104 26.6027 34.1339 25.9792 34.1339 25.21Z" fill="white"/>
</svg>
